<svg width="284" height="39" viewBox="0 0 284 39" fill="none" xmlns="http://www.w3.org/2000/svg">
<g filter="url(#filter0_d)">
<path d="M44.325 30V3.19H44.36L57.415 21.705L70.785 3.19H70.855V30H65.78V17.715L57.38 29.65H57.31L49.225 18.485V30H44.325ZM74.6085 30L86.2285 3.225H86.5085L98.1285 30H92.2485L90.2535 24.96H81.7135L79.6135 30H74.6085ZM83.4985 20.69H88.5735L86.0885 14.425L83.4985 20.69ZM109.689 4.24C112.932 4.24 115.417 5.03333 117.144 6.62C118.894 8.18333 119.769 10.2833 119.769 12.92C119.769 14.39 119.454 15.8367 118.824 17.26C118.217 18.6833 117.179 19.815 115.709 20.655L121.694 30H115.779L110.354 21.81H106.959V30H101.884V4.24H109.689ZM110.564 16.91C111.59 16.91 112.384 16.7 112.944 16.28C113.527 15.8367 113.935 15.3233 114.169 14.74C114.402 14.1333 114.519 13.585 114.519 13.095C114.519 12.815 114.472 12.465 114.379 12.045C114.309 11.6017 114.145 11.1583 113.889 10.715C113.632 10.2717 113.235 9.89833 112.699 9.595C112.185 9.29167 111.485 9.14 110.599 9.14H106.959V16.91H110.564ZM131.023 13.41L130.883 14.705L131.653 13.725L140.053 4.24H146.633L135.993 15.79L146.668 30H140.228L132.283 19.01L131.023 20.27V30H125.878V4.24H131.023V13.41ZM150.521 30V4.24H158.221C160.811 4.24 163.016 4.625 164.836 5.395C166.656 6.165 168.115 7.19167 169.211 8.475C170.331 9.75833 171.148 11.1933 171.661 12.78C172.175 14.3667 172.431 15.965 172.431 17.575C172.431 19.4883 172.081 21.215 171.381 22.755C170.705 24.2717 169.771 25.5783 168.581 26.675C167.391 27.7483 166.015 28.5767 164.451 29.16C162.888 29.72 161.231 30 159.481 30H150.521ZM155.596 25.1H158.606C161.173 25.1 163.238 24.435 164.801 23.105C166.388 21.775 167.181 19.815 167.181 17.225C167.181 15.545 166.901 14.18 166.341 13.13C165.805 12.0567 165.128 11.2283 164.311 10.645C163.518 10.0617 162.701 9.665 161.861 9.455C161.021 9.22167 160.31 9.105 159.726 9.105H155.596V25.1ZM177.523 4.24H195.093V9.14H182.598V14.635H193.658V19.535H182.598V25.1H195.583V30H177.523V4.24Z" fill="#F2F2F2"/>
</g>
<path d="M210.475 5.79L210.565 6.975C210.805 6.525 211.13 6.175 211.54 5.925C211.96 5.665 212.44 5.535 212.98 5.535C213.49 5.535 213.915 5.655 214.255 5.895C214.605 6.135 214.82 6.46 214.9 6.87C215.15 6.45 215.475 6.125 215.875 5.895C216.285 5.655 216.72 5.535 217.18 5.535C217.78 5.535 218.255 5.71 218.605 6.06C218.965 6.41 219.155 6.855 219.175 7.395V12H217.78V7.92C217.76 7.6 217.675 7.335 217.525 7.125C217.385 6.905 217.14 6.785 216.79 6.765C216.42 6.765 216.095 6.875 215.815 7.095C215.535 7.305 215.315 7.585 215.155 7.935C214.995 8.285 214.91 8.655 214.9 9.045V12H213.49V7.92C213.48 7.6 213.395 7.335 213.235 7.125C213.085 6.905 212.83 6.785 212.47 6.765C212.11 6.765 211.79 6.875 211.51 7.095C211.23 7.305 211.01 7.585 210.85 7.935C210.69 8.285 210.61 8.66 210.61 9.06V12H209.215V5.79H210.475ZM224.188 12.15C223.598 12.15 223.063 12.025 222.583 11.775C222.113 11.525 221.738 11.16 221.458 10.68C221.188 10.19 221.053 9.595 221.053 8.895C221.053 8.195 221.193 7.595 221.473 7.095C221.763 6.595 222.148 6.21 222.628 5.94C223.118 5.67 223.653 5.535 224.233 5.535C224.793 5.535 225.268 5.655 225.658 5.895C226.048 6.135 226.353 6.425 226.573 6.765L226.678 5.79H227.968V12H226.573V10.98C226.453 11.14 226.278 11.31 226.048 11.49C225.828 11.67 225.558 11.825 225.238 11.955C224.928 12.085 224.578 12.15 224.188 12.15ZM224.563 10.995C225.073 10.995 225.508 10.855 225.868 10.575C226.228 10.285 226.463 9.895 226.573 9.405V8.175C226.453 7.745 226.203 7.39 225.823 7.11C225.443 6.83 225.008 6.69 224.518 6.69C224.138 6.69 223.793 6.78 223.483 6.96C223.173 7.14 222.923 7.39 222.733 7.71C222.553 8.03 222.463 8.4 222.463 8.82C222.463 9.23 222.558 9.6 222.748 9.93C222.938 10.25 223.193 10.51 223.513 10.71C223.833 10.9 224.183 10.995 224.563 10.995ZM231.642 5.79L231.747 7.245C231.917 6.895 232.152 6.595 232.452 6.345C232.752 6.085 233.062 5.89 233.382 5.76C233.712 5.62 233.997 5.545 234.237 5.535L234.177 6.93C233.707 6.91 233.292 7.005 232.932 7.215C232.572 7.415 232.292 7.69 232.092 8.04C231.892 8.39 231.792 8.765 231.792 9.165V12H230.397V5.79H231.642ZM236.036 12V0.374999H237.431V8.22L240.641 5.64L241.496 6.39L239.201 8.25L241.796 12H240.161L238.241 9.03L237.431 9.675V12H236.036ZM245.837 12.15C245.247 12.15 244.717 12.015 244.247 11.745C243.787 11.465 243.422 11.075 243.152 10.575C242.892 10.065 242.762 9.475 242.762 8.805C242.762 8.125 242.902 7.54 243.182 7.05C243.462 6.56 243.847 6.185 244.337 5.925C244.837 5.665 245.392 5.535 246.002 5.535C246.472 5.535 246.922 5.635 247.352 5.835C247.782 6.025 248.127 6.29 248.387 6.63V0.374999H249.782V12H248.372V11.04C248.072 11.37 247.702 11.64 247.262 11.85C246.832 12.05 246.357 12.15 245.837 12.15ZM246.272 10.95C246.812 10.95 247.267 10.805 247.637 10.515C248.007 10.225 248.247 9.835 248.357 9.345V8.175C248.247 7.735 247.997 7.37 247.607 7.08C247.227 6.79 246.782 6.645 246.272 6.645C245.892 6.645 245.542 6.74 245.222 6.93C244.902 7.11 244.647 7.36 244.457 7.68C244.267 8 244.172 8.37 244.172 8.79C244.172 9.19 244.267 9.555 244.457 9.885C244.647 10.215 244.902 10.475 245.222 10.665C245.542 10.855 245.892 10.95 246.272 10.95ZM251.654 8.835C251.654 8.215 251.799 7.655 252.089 7.155C252.389 6.655 252.799 6.26 253.319 5.97C253.839 5.68 254.434 5.535 255.104 5.535C255.774 5.535 256.364 5.68 256.874 5.97C257.384 6.26 257.779 6.655 258.059 7.155C258.349 7.655 258.494 8.215 258.494 8.835C258.494 9.455 258.349 10.015 258.059 10.515C257.779 11.015 257.379 11.415 256.859 11.715C256.349 12.005 255.754 12.15 255.074 12.15C254.414 12.15 253.824 12.015 253.304 11.745C252.794 11.475 252.389 11.09 252.089 10.59C251.799 10.09 251.654 9.505 251.654 8.835ZM253.064 8.85C253.064 9.25 253.149 9.615 253.319 9.945C253.499 10.265 253.739 10.52 254.039 10.71C254.339 10.9 254.679 10.995 255.059 10.995C255.449 10.995 255.794 10.9 256.094 10.71C256.394 10.52 256.629 10.265 256.799 9.945C256.979 9.615 257.069 9.25 257.069 8.85C257.069 8.45 256.979 8.09 256.799 7.77C256.629 7.44 256.394 7.18 256.094 6.99C255.794 6.79 255.449 6.69 255.059 6.69C254.679 6.69 254.334 6.79 254.024 6.99C253.724 7.19 253.489 7.455 253.319 7.785C253.149 8.105 253.064 8.46 253.064 8.85ZM264.167 5.79L265.847 9.66L267.422 5.79H268.802L265.937 12.375L263.942 8.115L262.127 12.375L259.247 5.79H260.627L262.277 9.555L263.447 6.855L262.952 5.79H264.167ZM271.559 5.79L271.649 6.99C271.859 6.55 272.184 6.2 272.624 5.94C273.064 5.68 273.574 5.55 274.154 5.55C274.734 5.55 275.209 5.725 275.579 6.075C275.959 6.415 276.159 6.86 276.179 7.41V12H274.769V7.89C274.749 7.56 274.644 7.29 274.454 7.08C274.274 6.87 273.989 6.76 273.599 6.75C273.059 6.75 272.604 6.97 272.234 7.41C271.874 7.84 271.694 8.4 271.694 9.09V12H270.299V5.79H271.559ZM212.095 30.15C211.395 30.15 210.785 30.01 210.265 29.73C209.755 29.44 209.36 29.045 209.08 28.545C208.81 28.045 208.675 27.48 208.675 26.85C208.675 26.24 208.825 25.685 209.125 25.185C209.435 24.675 209.85 24.275 210.37 23.985C210.9 23.685 211.485 23.535 212.125 23.535C212.945 23.535 213.625 23.775 214.165 24.255C214.705 24.735 215.075 25.395 215.275 26.235L210.355 27.96C210.525 28.27 210.765 28.515 211.075 28.695C211.385 28.865 211.735 28.95 212.125 28.95C212.405 28.95 212.67 28.9 212.92 28.8C213.17 28.7 213.41 28.57 213.64 28.41L214.285 29.445C213.965 29.655 213.61 29.825 213.22 29.955C212.84 30.085 212.465 30.15 212.095 30.15ZM210.055 26.775C210.045 26.895 210.05 27.01 210.07 27.12L213.685 25.785C213.545 25.485 213.34 25.22 213.07 24.99C212.81 24.76 212.46 24.645 212.02 24.645C211.45 24.645 210.98 24.845 210.61 25.245C210.24 25.645 210.055 26.155 210.055 26.775ZM219.543 30.15C218.953 30.15 218.423 30.015 217.953 29.745C217.493 29.465 217.128 29.075 216.858 28.575C216.598 28.065 216.468 27.475 216.468 26.805C216.468 26.125 216.608 25.54 216.888 25.05C217.168 24.56 217.553 24.185 218.043 23.925C218.543 23.665 219.098 23.535 219.708 23.535C220.178 23.535 220.628 23.635 221.058 23.835C221.488 24.025 221.833 24.29 222.093 24.63V18.375H223.488V30H222.078V29.04C221.778 29.37 221.408 29.64 220.968 29.85C220.538 30.05 220.063 30.15 219.543 30.15ZM219.978 28.95C220.518 28.95 220.973 28.805 221.343 28.515C221.713 28.225 221.953 27.835 222.063 27.345V26.175C221.953 25.735 221.703 25.37 221.313 25.08C220.933 24.79 220.488 24.645 219.978 24.645C219.598 24.645 219.248 24.74 218.928 24.93C218.608 25.11 218.353 25.36 218.163 25.68C217.973 26 217.878 26.37 217.878 26.79C217.878 27.19 217.973 27.555 218.163 27.885C218.353 28.215 218.608 28.475 218.928 28.665C219.248 28.855 219.598 28.95 219.978 28.95ZM225.9 23.79H227.295V30H225.9V23.79ZM225.795 21.555C225.795 21.325 225.88 21.14 226.05 21C226.23 20.85 226.425 20.775 226.635 20.775C226.845 20.775 227.035 20.85 227.205 21C227.375 21.14 227.46 21.325 227.46 21.555C227.46 21.785 227.375 21.975 227.205 22.125C227.035 22.265 226.845 22.335 226.635 22.335C226.425 22.335 226.23 22.265 226.05 22.125C225.88 21.975 225.795 21.785 225.795 21.555ZM230.323 21.06H231.733V23.805H233.428V24.915H231.733V30H230.323V24.915H229.183V23.805H230.323V21.06ZM234.588 26.835C234.588 26.215 234.733 25.655 235.023 25.155C235.323 24.655 235.733 24.26 236.253 23.97C236.773 23.68 237.368 23.535 238.038 23.535C238.708 23.535 239.298 23.68 239.808 23.97C240.318 24.26 240.713 24.655 240.993 25.155C241.283 25.655 241.428 26.215 241.428 26.835C241.428 27.455 241.283 28.015 240.993 28.515C240.713 29.015 240.313 29.415 239.793 29.715C239.283 30.005 238.688 30.15 238.008 30.15C237.348 30.15 236.758 30.015 236.238 29.745C235.728 29.475 235.323 29.09 235.023 28.59C234.733 28.09 234.588 27.505 234.588 26.835ZM235.998 26.85C235.998 27.25 236.083 27.615 236.253 27.945C236.433 28.265 236.673 28.52 236.973 28.71C237.273 28.9 237.613 28.995 237.993 28.995C238.383 28.995 238.728 28.9 239.028 28.71C239.328 28.52 239.563 28.265 239.733 27.945C239.913 27.615 240.003 27.25 240.003 26.85C240.003 26.45 239.913 26.09 239.733 25.77C239.563 25.44 239.328 25.18 239.028 24.99C238.728 24.79 238.383 24.69 237.993 24.69C237.613 24.69 237.268 24.79 236.958 24.99C236.658 25.19 236.423 25.455 236.253 25.785C236.083 26.105 235.998 26.46 235.998 26.85ZM244.547 23.79L244.652 25.245C244.822 24.895 245.057 24.595 245.357 24.345C245.657 24.085 245.967 23.89 246.287 23.76C246.617 23.62 246.902 23.545 247.142 23.535L247.082 24.93C246.612 24.91 246.197 25.005 245.837 25.215C245.477 25.415 245.197 25.69 244.997 26.04C244.797 26.39 244.697 26.765 244.697 27.165V30H243.302V23.79H244.547Z" fill="#F2F2F2"/>
<path d="M6.83333 3V10.5H0V24H6.83333V39H30.75L41 30V3H6.83333ZM1.70833 22.5V12H27.3333V22.5H1.70833ZM30.75 36.879V30H38.5844L30.75 36.879ZM39.2917 28.5H29.0417V37.5H8.54167V24H29.0417V10.5H8.54167V4.5H39.2917V28.5Z" fill="#F2F2F2"/>
<path d="M9.55811 14.049L8.50236 18.585H8.48015L7.43636 14.049H5.24115V20.475H6.59415V15.345H6.61465L7.9164 20.475H9.0644L10.3662 15.345H10.3867V20.475H11.7397V14.049H9.55811Z" fill="#F2F2F2"/>
<path d="M18.6396 15.885C18.5781 15.4995 18.4619 15.1725 18.286 14.8995C18.1117 14.625 17.8674 14.4165 17.5531 14.2695C17.2371 14.1225 16.8254 14.0475 16.3112 14.0475H13.8956V20.4735H16.2223C16.7143 20.4735 17.1209 20.4075 17.4421 20.2755C17.7632 20.1435 18.0195 19.944 18.2108 19.6725C18.4022 19.4025 18.5371 19.0575 18.6157 18.642C18.6943 18.225 18.7319 17.7345 18.7319 17.1705C18.7319 16.698 18.7011 16.269 18.6396 15.885ZM17.208 18.306C17.179 18.6015 17.1175 18.8385 17.0235 19.0185C16.9313 19.1985 16.8066 19.3275 16.6494 19.4055C16.4922 19.4835 16.2838 19.5225 16.0242 19.5225H15.3664V15.003H15.9917C16.2719 15.003 16.4957 15.051 16.6631 15.144C16.8322 15.2355 16.9569 15.3735 17.044 15.5565C17.1294 15.7395 17.1858 15.969 17.2132 16.245C17.2388 16.5225 17.2542 16.8435 17.2542 17.2095C17.2542 17.6475 17.2388 18.0135 17.208 18.306Z" fill="#F2F2F2"/>
<defs>
<filter id="filter0_d" x="40.325" y="3.19" width="159.258" height="34.81" filterUnits="userSpaceOnUse" color-interpolation-filters="sRGB">
<feFlood flood-opacity="0" result="BackgroundImageFix"/>
<feColorMatrix in="SourceAlpha" type="matrix" values="0 0 0 0 0 0 0 0 0 0 0 0 0 0 0 0 0 0 127 0"/>
<feOffset dy="4"/>
<feGaussianBlur stdDeviation="2"/>
<feColorMatrix type="matrix" values="0 0 0 0 0 0 0 0 0 0 0 0 0 0 0 0 0 0 0.25 0"/>
<feBlend mode="normal" in2="BackgroundImageFix" result="effect1_dropShadow"/>
<feBlend mode="normal" in="SourceGraphic" in2="effect1_dropShadow" result="shape"/>
</filter>
</defs>
</svg>
